<!DOCTYPE svg PUBLIC "-//W3C//DTD SVG 1.1//EN" "http://www.w3.org/Graphics/SVG/1.1/DTD/svg11.dtd">
<!-- Uploaded to: SVG Repo, www.svgrepo.com, Transformed by: SVG Repo Mixer Tools -->
<svg width="800px" height="800px" viewBox="-4 0 34 34" xmlns="http://www.w3.org/2000/svg" fill="#733AEE" stroke="#733AEE">
<g id="SVGRepo_bgCarrier" stroke-width="0"/>
<g id="SVGRepo_tracerCarrier" stroke-linecap="round" stroke-linejoin="round"/>
<g id="SVGRepo_iconCarrier"> <g fill="none" fill-rule="evenodd"> <g> <path d="M1 1.993c0-.55.45-.993.995-.993h17.01c.55 0 1.34.275 1.776.625l3.44 2.75c.43.345.78 1.065.78 1.622v26.006c0 .55-.447.997-1 .997H2c-.552 0-1-.452-1-.993V1.993z" stroke="#9A8#D5CCFFE2" stroke-width="2"/> <path fill="#9A8#D5CCFFE2" d="M18 2h1v6h-1z"/> <path fill="#9A8#D5CCFFE2" d="M18 7h6v1h-6z"/> <g fill="#9A8#D5CCFFE2575757"> <path d="M6 12h14v1H6z"/> <path d="M6 21h14v1H6z"/> <path d="M6 12h1v10H6z"/> <path d="M19 12h1v10h-1z"/> <g> <path d="M6 15h14v1H6z"/> <path d="M6 18h14v1H6z"/> </g> <path d="M9 13h1v8H9z"/> </g> </g> </g> </g>
</svg>